<svg width="22" height="22" viewBox="0 0 22 22" fill="none" xmlns="http://www.w3.org/2000/svg">
<path d="M17.9442 6.1875H4.05671C3.88754 6.18829 3.72445 6.25067 3.59792 6.36296C3.4714 6.47525 3.39009 6.62978 3.36921 6.79766L2.1489 17.7977C2.13804 17.8935 2.14748 17.9906 2.17659 18.0825C2.2057 18.1745 2.25384 18.2593 2.31787 18.3314C2.3819 18.4035 2.46039 18.4614 2.54825 18.5012C2.6361 18.541 2.73135 18.5619 2.8278 18.5625H19.1731C19.2696 18.5619 19.3648 18.541 19.4527 18.5012C19.5405 18.4614 19.619 18.4035 19.6831 18.3314C19.7471 18.2593 19.7952 18.1745 19.8243 18.0825C19.8534 17.9906 19.8629 17.8935 19.852 17.7977L18.6317 6.79766C18.6108 6.62978 18.5295 6.47525 18.403 6.36296C18.2765 6.25067 18.1134 6.18829 17.9442 6.1875V6.1875Z" stroke="black" stroke-width="1.2" stroke-linecap="round" stroke-linejoin="round"/>
<path d="M7.5625 8.9375V6.1875C7.5625 5.27582 7.92466 4.40148 8.56932 3.75682C9.21398 3.11216 10.0883 2.75 11 2.75C11.9117 2.75 12.786 3.11216 13.4307 3.75682C14.0753 4.40148 14.4375 5.27582 14.4375 6.1875V8.9375" stroke="black" stroke-width="1.2" stroke-linecap="round" stroke-linejoin="round"/>
</svg>
