<svg width="18" height="19" viewBox="0 0 18 19" fill="none" xmlns="http://www.w3.org/2000/svg">
<path fill-rule="evenodd" clip-rule="evenodd" d="M15.0209 14.6769C14.1154 13.2161 12.7301 12.151 11.1412 11.6388C11.9712 10.9858 12.5147 9.97717 12.5147 8.83325C12.5147 6.86915 10.939 5.27082 9.00028 5.27082C7.06276 5.27082 5.48608 6.86915 5.48608 8.83325C5.48608 9.97717 6.02957 10.9871 6.85939 11.6388C5.27068 12.1509 3.88519 13.2161 2.97988 14.6769C1.80673 13.2782 1.09361 11.4703 1.09361 9.4951C1.09361 5.07452 4.64076 1.47841 9.00017 1.47841C13.3596 1.47841 16.9067 5.07426 16.9067 9.4951C16.9067 11.4703 16.1939 13.2782 15.0207 14.6769H15.0209ZM6.57936 8.83331C6.57936 7.4799 7.66509 6.37932 9.00012 6.37932C10.3351 6.37932 11.4211 7.47995 11.4211 8.83331C11.4211 10.1867 10.3352 11.2875 9.00012 11.2875C7.66504 11.2875 6.57936 10.1867 6.57936 8.83331ZM9.00012 17.5093C6.98388 17.5093 5.14811 16.7344 3.7506 15.4709C3.76382 15.4532 3.78558 15.4443 3.79758 15.4231C4.87576 13.5565 6.86799 12.3961 9.00014 12.3961C11.1313 12.3961 13.1247 13.5565 14.2017 15.422C14.2137 15.4431 14.2322 15.4552 14.2464 15.4742C12.8491 16.7356 11.0143 17.5093 9 17.5093L9.00012 17.5093ZM9 0.370605C4.03805 0.370605 0 4.46419 0 9.49574C0 14.5258 4.03815 18.6182 9 18.6182C13.9622 18.6182 18 14.5259 18 9.49574C18 4.46446 13.9621 0.370605 9 0.370605Z" fill="#000"/>
</svg>
